<?xml version="1.0" standalone="no"?>
<!DOCTYPE svg PUBLIC "-//W3C//DTD SVG 20010904//EN"
 "http://www.w3.org/TR/2001/REC-SVG-20010904/DTD/svg10.dtd">
<svg version="1.0" xmlns="http://www.w3.org/2000/svg"
 width="2000.000000pt" height="2000.000000pt" viewBox="0 0 2000.000000 2000.000000"
 preserveAspectRatio="xMidYMid meet">
<metadata>
Created by potrace 1.14, written by Peter Selinger 2001-2017
</metadata>
<g transform="translate(0.000000,2000.000000) scale(0.100000,-0.100000)"
fill="#000000" stroke="none">
<path d="M2359 19996 c-2 -2 -38 -7 -79 -10 -145 -14 -180 -20 -320 -52 -234
-54 -473 -148 -692 -272 -40 -23 -234 -149 -258 -168 -186 -148 -318 -274
-420 -403 -19 -24 -42 -52 -51 -61 -24 -25 -118 -164 -182 -268 -62 -99 -128
-233 -178 -359 -27 -69 -43 -115 -94 -283 -21 -69 -53 -243 -69 -370 -13 -99
-14 -1153 -12 -7790 2 -4221 5 -7688 9 -7705 3 -16 8 -50 11 -75 3 -25 11 -67
16 -95 6 -27 12 -61 15 -75 13 -67 19 -92 47 -185 145 -487 417 -908 793
-1225 104 -87 272 -205 365 -256 19 -10 37 -22 40 -25 4 -6 178 -90 245 -119
96 -42 304 -110 370 -121 6 -1 20 -5 33 -10 13 -5 37 -11 55 -14 18 -3 55 -10
82 -15 74 -14 111 -19 200 -27 107 -11 15339 -10 15437 0 43 5 88 10 100 12
35 6 149 26 183 31 54 9 301 84 379 115 105 42 251 111 334 159 64 36 278 179
312 208 14 12 48 40 75 63 112 93 230 213 331 339 65 80 191 261 201 288 4 10
10 19 14 22 13 9 97 176 142 282 90 210 163 473 182 653 4 33 10 89 15 125 10
78 8 15380 -3 15430 -3 19 -9 57 -12 83 -24 209 -116 513 -228 747 -67 143
-207 367 -295 471 -165 197 -242 274 -412 412 -211 172 -532 343 -795 423 -44
14 -100 31 -125 39 -55 17 -227 51 -295 59 -27 4 -66 9 -85 13 -35 7 -15373
16 -15381 9z"/>
</g>
</svg>
